<svg xmlns="http://www.w3.org/2000/svg" viewBox="0 0 177 216.01"><defs><style>.cls-1{fill:#f7a8ae;}.cls-2{fill:#96d1f2;}.cls-3{fill:#58b6e7;}</style></defs><g id="Layer_2" data-name="Layer 2"><g id="O-Wings"><g id="Main"><path class="cls-1" d="M157.56,107.22A42,42,0,0,0,176,80.63c2.31-10.7.19-17.9-1.26-21.64s-5-4.92-8.29-2.72c-4.85,3.28-9.49,6.9-16.77,10.53a.23.23,0,0,1-.26-.38c18.75-17.22,23.43-32.5,19.13-47.84C164,2.52,148.34-.66,145.54.1l0,0c-12.9,30.48-24,49.66-50.5,73.62C64.3,101.5,56.1,130.9,67.85,154.33c10.28,20.5,28.9,24.81,45.47,18,9.77-4,15-11.13,17-17a33.55,33.55,0,0,0-.43-21.6c-4.63-11.74-15.31-12.93-22.27-12S94.4,128.12,96.5,136.8c2,8.1,8.17,8.27,10.54,7.55,2.6-.79,4.1-1.54,5.35.18s-1,5.18-6.55,6.07c-5.86,1-15.13-1.7-17-12.18a20.29,20.29,0,0,1,14.51-23.29c10.07-2.71,24.47.07,31.17,13.09a39.2,39.2,0,0,1,3.27,12.44h0a2.27,2.27,0,0,0,2.75,1.94,48.18,48.18,0,0,0,20.69-10.8h0a35.83,35.83,0,0,0,5.73-6.46c3.83-5.6,6.25-10.8,5.83-17.35-.16-2.53-1.64-4.92-4-4.12-2.62.89-6.24,2.44-11,3.77A.23.23,0,0,1,157.56,107.22Z"/><path class="cls-2" d="M138,148.84a41,41,0,0,1-2.31,11.51c-4.93,13.66-18.46,25.13-36.22,26.74-33.3,3-55.58-23.63-52-59.55C50,102.8,63.63,86.44,84.39,70.73,99.91,59,110.87,48,114.55,40.33c1.47-3.07,2.83-8-1.16-10.24a53.12,53.12,0,0,0-24-6c-46.13-.56-93,21.87-89.12,91.36,4.61,82.47,58.84,104.23,100.36,100.13,31.28-3.09,51.9-22,59.48-52.35a77.85,77.85,0,0,0,2.11-23.87A43.66,43.66,0,0,1,138,148.84Z"/><path class="cls-3" d="M140.52,142.6a2.27,2.27,0,0,1-2.75-1.94h0a47.6,47.6,0,0,1,.23,8.18h0a43.66,43.66,0,0,0,24.18-9.52,54.87,54.87,0,0,0-1-7.52h0A48.18,48.18,0,0,1,140.52,142.6Z"/></g></g></g></svg>