<?xml version="1.0" encoding="utf-8"?>
<!-- Generator: Adobe Illustrator 27.7.0, SVG Export Plug-In . SVG Version: 6.00 Build 0)  -->
<svg version="1.1" id="O-Wing" xmlns="http://www.w3.org/2000/svg" xmlns:xlink="http://www.w3.org/1999/xlink" x="0px" y="0px"
	 viewBox="0 0 262.8 262.8" style="enable-background:new 0 0 262.8 262.8;" xml:space="preserve">
<style type="text/css">
	.st0{fill:#FFFFFF;}
	.st1{fill:#F7A8AE;}
	.st2{fill:#96D1F2;}
	.st3{fill:#58B6E7;}
</style>
<g>
	<path id="Outline" class="st0" d="M161.6,33.8c-10.2-5.3-17.7-6.3-29.1-6.4c-0.6,0-1.2,0-1.9,0l0,0l0,0c0,0,0,0,0,0
		c-15.6,0-30.2,2.3-43.3,6.8c-15.4,5.3-28.3,13.4-38.6,24.3c-9.2,9.7-16,21.4-20.3,34.8c-4.4,13.8-6.2,29.4-5.2,46.6
		c1.1,20.5,5.2,38.9,12,54.7c6.4,15,15.4,27.7,26.6,37.9c19.1,17.4,44.7,26.9,72.2,26.9c3.8,0,7.7-0.2,11.6-0.6
		c39.1-3.9,67.2-28.4,76.9-67.4c2.4-9.9,3.3-20,2.7-30l1.2-1.3l0,0l0,0c4.8-7,10.1-16.7,9.3-29.9c-0.2-2.9-0.8-5.7-1.9-8.2
		c2.1-4.3,3.6-8.9,4.7-13.6c2.5-11.7,1.8-22.8-2.2-33.1c-1.2-3.2-3-6.1-5.3-8.5c2.6-9.8,2.5-19.9-0.3-30.1l0,0l0,0
		c-6.8-24.1-28.9-33.1-41.2-33.1l0,0c0,0,0,0,0,0l0,0c-2.2,0-4.3,0.3-6.3,0.8l0,0c-5.9,1.6-10.8,5.9-13.2,11.5l0,0
		c-6.7,15.7-7.5,17.5-8.3,18.2L161.6,33.8z"/>
	<g id="Interior_Wing">
		<path class="st1" d="M200.5,130.6c9.5-6,16.1-15.6,18.4-26.6c2.3-10.7,0.2-17.9-1.3-21.6s-5-4.9-8.3-2.7
			c-4.9,3.3-9.5,6.9-16.8,10.5c-0.1,0.1-0.2,0-0.3-0.1c-0.1-0.1,0-0.2,0.1-0.3c18.8-17.2,23.4-32.5,19.1-47.8
			c-4.6-16.1-20.2-19.2-23-18.5l0,0c-12.9,30.5-24,49.7-50.5,73.6c-30.7,27.8-38.9,57.2-27.2,80.6c10.3,20.5,28.9,24.8,45.5,18
			c9.8-4,15-11.1,17-17c2.2-7.1,2.1-14.6-0.4-21.6c-4.6-11.7-15.3-12.9-22.3-12c-7,0.9-13.2,6.4-11.1,15.1c2,8.1,8.2,8.3,10.5,7.6
			c2.6-0.8,4.1-1.5,5.4,0.2s-1,5.2-6.6,6.1c-5.9,1-15.1-1.7-17-12.2c-1.9-10.4,4.4-20.5,14.5-23.3c10.1-2.7,24.5,0.1,31.2,13.1
			c1.8,3.9,2.9,8.1,3.3,12.4l0,0c0.2,1.2,1.3,2.1,2.5,2c0.1,0,0.1,0,0.2,0c7.7-1.8,14.8-5.6,20.7-10.8l0,0c2.2-1.9,4.1-4.1,5.7-6.5
			c3.8-5.6,6.2-10.8,5.8-17.3c-0.2-2.5-1.6-4.9-4-4.1c-2.6,0.9-6.2,2.4-11,3.8c-0.1,0.1-0.3,0-0.3-0.1S200.3,130.7,200.5,130.6z"/>
	</g>
	<g id="Exerior_Wing">
		<path class="st2" d="M180.9,172.2c-0.2,3.9-1,7.8-2.3,11.5c-4.9,13.7-18.5,25.1-36.2,26.7c-33.3,3-55.6-23.6-52-59.6
			c2.5-24.7,16.2-41.1,36.9-56.8c15.5-11.7,26.5-22.7,30.2-30.4c1.5-3.1,2.8-8-1.2-10.2c-7.4-3.9-15.6-5.9-24-6
			c-46.1-0.6-93,21.9-89.1,91.4C47.8,221.3,102,243.1,143.5,239c31.3-3.1,51.9-22,59.5-52.3c1.9-7.8,2.6-15.9,2.1-23.9
			C198.2,168.3,189.7,171.6,180.9,172.2z"/>
	</g>
	<g id="Transition">
		<path class="st3" d="M183.4,166c-1.2,0.3-2.4-0.5-2.7-1.7c0-0.1,0-0.1,0-0.2l0,0c0.3,2.7,0.4,5.5,0.2,8.2l0,0
			c8.8-0.6,17.3-4,24.2-9.5c-0.2-2.5-0.5-5-1-7.5l0,0C198.2,160.4,191.1,164.1,183.4,166z"/>
	</g>
</g>
</svg>
